<?xml version="1.0" encoding="utf-8"?>
<!-- Generator: Adobe Illustrator 18.0.0, SVG Export Plug-In . SVG Version: 6.00 Build 0)  -->
<!DOCTYPE svg PUBLIC "-//W3C//DTD SVG 1.1//EN" "http://www.w3.org/Graphics/SVG/1.1/DTD/svg11.dtd">
<svg version="1.1" id="Calque_3" xmlns="http://www.w3.org/2000/svg" xmlns:xlink="http://www.w3.org/1999/xlink" x="0px" y="0px"
	 viewBox="0 0 768 1024" enable-background="new 0 0 768 1024" xml:space="preserve">
<polygon fill="#404040" stroke="#000000" stroke-width="0.8636" stroke-miterlimit="10" points="82.7,479.7 265,479.7 265.2,310.9 
	336,267.5 335.6,452.2 423.7,444.5 424.1,221.7 494,190.4 493.4,439.9 581.6,432.7 581.9,152.4 653.1,120.3 653.1,479.4 
	684.1,479.4 684.1,517.8 82.7,518.2 "/>
<polygon id="a114" fill="#BFBFBF" stroke="#000000" stroke-width="0.8636" stroke-miterlimit="10" points="265.2,310.9 279.6,302.1 
	284.9,310.1 284.6,335.4 265.2,335.5 "/>
<polygon id="a115" fill="#BFBFBF" stroke="#000000" stroke-width="0.8636" stroke-miterlimit="10" points="299,290.3 308.3,306.4 
	335.7,306.1 336,267.5 "/>
<polygon id="i116reserveeconceptionnumerique" fill="#BFBFBF" stroke="#000000" stroke-width="0.8636" stroke-miterlimit="10" points="
	450.3,210 450.3,265.4 424.1,265.4 424.1,221.7 "/>
<polygon id="e118120salletpelec1a" fill="#BFBFBF" stroke="#000000" stroke-width="0.8636" stroke-miterlimit="10" points="
	610.8,139.3 581.9,152.4 581.8,207.3 616.8,207.2 616.8,154.7 "/>
<rect id="td14" title="TD14" x="101" y="488.8" fill="#BFBFBF" stroke="#000000" stroke-width="0.8636" stroke-miterlimit="10" width="34.8" height="29.4"/>
<rect id="td13" title="TD13" x="135.9" y="488.8" fill="#BFBFBF" stroke="#000000" stroke-width="0.8636" stroke-miterlimit="10" width="40.7" height="29.4"/>
<rect id="td12" title="TD12" x="176.6" y="488.8" fill="#BFBFBF" stroke="#000000" stroke-width="0.8636" stroke-miterlimit="10" width="40.7" height="29.4"/>
<rect id="td11" title="TD11" x="217.3" y="488.8" fill="#BFBFBF" stroke="#000000" stroke-width="0.8636" stroke-miterlimit="10" width="52.5" height="29.3"/>
<rect id="td10" title="TD10" x="269.8" y="488.8" fill="#BFBFBF" stroke="#000000" stroke-width="0.8636" stroke-miterlimit="10" width="34.8" height="29.3"/>
<rect id="td9"  title="TD9" x="304.8" y="488.8" fill="#BFBFBF" stroke="#000000" stroke-width="0.8636" stroke-miterlimit="10" width="40.7" height="29.3"/>
<rect id="td8" title="TD8" x="345.4" y="488.8" fill="#BFBFBF" stroke="#000000" stroke-width="0.8636" stroke-miterlimit="10" width="41.3" height="29.3"/>
<rect id="td7" title="TD7" x="386.6" y="488.8" fill="#BFBFBF" stroke="#000000" stroke-width="0.8636" stroke-miterlimit="10" width="35.4" height="29.3"/>
<rect id="td6" title="TD6" x="468.1" y="489.4" fill="#BFBFBF" stroke="#000000" stroke-width="0.8636" stroke-miterlimit="10" width="57.7" height="28.5"/>
<rect id="td5" title="TD5" x="525.9" y="489.4" fill="#BFBFBF" stroke="#000000" stroke-width="0.8636" stroke-miterlimit="10" width="40.9" height="28.5"/>
<rect id="photocopieuse" title="Photocopieuse" x="566.8" y="489.4" fill="#BFBFBF" stroke="#000000" stroke-width="0.8636" stroke-miterlimit="10" width="17.5" height="28.5"/>
<rect id="td4" title="TD4" x="648.3" y="489.4" fill="#BFBFBF" stroke="#000000" stroke-width="0.8636" stroke-miterlimit="10" width="35.8" height="28.3"/>
<rect id="e101" title="E101" x="625.4" y="393.4" fill="#BFBFBF" stroke="#000000" stroke-width="0.8636" stroke-miterlimit="10" width="27.7" height="11.4"/>
<rect id="e103" title="E103" x="625.4" y="381.9" fill="#BFBFBF" stroke="#000000" stroke-width="0.8636" stroke-miterlimit="10" width="27.7" height="11.5"/>
<rect id="e105" title="E105" x="625.4" y="370.3" fill="#BFBFBF" stroke="#000000" stroke-width="0.8636" stroke-miterlimit="10" width="27.7" height="11.6"/>
<rect id="e107" title="E107" x="625.4" y="358.6" fill="#BFBFBF" stroke="#000000" stroke-width="0.8636" stroke-miterlimit="10" width="27.7" height="11.7"/>
<rect id="e109" title="E109" x="625.4" y="347" fill="#BFBFBF" stroke="#000000" stroke-width="0.8636" stroke-miterlimit="10" width="27.7" height="11.7"/>
<rect id="e111" title="E111" x="625.4" y="335.4" fill="#BFBFBF" stroke="#000000" stroke-width="0.8636" stroke-miterlimit="10" width="27.7" height="11.7"/>
<rect id="e113" title="E113" x="625.4" y="323.8" fill="#BFBFBF" stroke="#000000" stroke-width="0.8636" stroke-miterlimit="10" width="27.7" height="11.7"/>
<rect id="e115" title="E115" x="625.4" y="312.8" fill="#BFBFBF" stroke="#000000" stroke-width="0.8636" stroke-miterlimit="10" width="27.7" height="11"/>
<rect id="e117" title="E117" x="625.4" y="265.6" fill="#BFBFBF" stroke="#000000" stroke-width="0.8636" stroke-miterlimit="10" width="27.7" height="47.1"/>
<rect id="e119" title="E119" x="625.4" y="254" fill="#BFBFBF" stroke="#000000" stroke-width="0.8636" stroke-miterlimit="10" width="27.7" height="11.6"/>
<rect id="e121" title="E121" x="625.4" y="242.2" fill="#BFBFBF" stroke="#000000" stroke-width="0.8636" stroke-miterlimit="10" width="27.7" height="11.9"/>
<rect id="e123125salletpmesures" title="E123-125, Salle TP Mesures" x="625.4" y="184" fill="#BFBFBF" stroke="#000000" stroke-width="0.8636" stroke-miterlimit="10" width="27.7" height="58.2"/>
<rect id="e127" title="E127" x="625.4" y="172.7" fill="#BFBFBF" stroke="#000000" stroke-width="0.8636" stroke-miterlimit="10" width="27.7" height="11.3"/>
<rect id="e129" title="E129" x="625.4" y="155.3" fill="#BFBFBF" stroke="#000000" stroke-width="0.8636" stroke-miterlimit="10" width="27.6" height="17.4"/>
<rect id="e102" title="E102" x="581.8" y="207.3" fill="#BFBFBF" stroke="#000000" stroke-width="0.8636" stroke-miterlimit="10" width="35.1" height="52.2"/>
<rect id="e104106" title="E104-106" x="581.6" y="259.5" fill="#BFBFBF" stroke="#000000" stroke-width="0.8636" stroke-miterlimit="10" width="35.3" height="58.2"/>
<rect id="e108" title="E108" x="581.6" y="317.6" fill="#BFBFBF" stroke="#000000" stroke-width="0.8636" stroke-miterlimit="10" width="35.3" height="11.9"/>
<rect id="e110112" title="E110-112" x="581.6" y="329.6" fill="#BFBFBF" stroke="#000000" stroke-width="0.8636" stroke-miterlimit="10" width="35.3" height="52"/>
<rect id="e114116salletpelec2a" title="E114-116, Salle TP Elec 2A" x="581.6" y="381.6" fill="#BFBFBF" stroke="#000000" stroke-width="0.8636" stroke-miterlimit="10" width="35.3" height="23.1"/>
<rect id="i112" title="I112" x="424.1" y="265.4" fill="#BFBFBF" stroke="#000000" stroke-width="0.8636" stroke-miterlimit="10" width="26.7" height="46.6"/>
<rect id="i108" title="I108, Salle Mac" x="424" y="312" fill="#BFBFBF" stroke="#000000" stroke-width="0.8636" stroke-miterlimit="10" width="26.7" height="40.5"/>
<rect id="i106" title="Gala" x="423.9" y="352.5" fill="#BFBFBF" stroke="#000000" stroke-width="0.8636" stroke-miterlimit="10" width="26.7" height="12"/>
<rect id="i102" title="I102" x="423.9" y="364.4" fill="#BFBFBF" stroke="#000000" stroke-width="0.8636" stroke-miterlimit="10" width="26.7" height="40.4"/>
<rect id="i101" title="I101" x="458.9" y="364.4" fill="#BFBFBF" stroke="#000000" stroke-width="0.8636" stroke-miterlimit="10" width="34.6" height="40.4"/>
<rect id="aei" title="AEI" x="458.9" y="347" fill="#BFBFBF" stroke="#000000" stroke-width="0.8636" stroke-miterlimit="10" width="34.7" height="17.5"/>
<rect id="i107" title="I107" x="458.9" y="306.3" fill="#BFBFBF" stroke="#000000" stroke-width="0.8636" stroke-miterlimit="10" width="34.7" height="40.7"/>
<rect id="i111" title="I111" x="458.9" y="265.4" fill="#BFBFBF" stroke="#000000" stroke-width="0.8636" stroke-miterlimit="10" width="34.7" height="41"/>
<rect id="i115" title="I115" x="458.9" y="225" fill="#BFBFBF" stroke="#000000" stroke-width="0.8636" stroke-miterlimit="10" width="34.8" height="40.2"/>
<rect id="a113" title="A113" x="319.4" y="306.2" fill="#BFBFBF" stroke="#000000" stroke-width="0.8636" stroke-miterlimit="10" width="16.4" height="29.5"/>
<rect id="a111" title="A111" x="319.4" y="335.7" fill="#BFBFBF" stroke="#000000" stroke-width="0.8636" stroke-miterlimit="10" width="16.4" height="23.2"/>
<rect id="a109" title="A109" x="319.4" y="364.8" fill="#BFBFBF" stroke="#000000" stroke-width="0.8636" stroke-miterlimit="10" width="16.1" height="17.2"/>
<rect id="a107" title="A107" x="310.8" y="381.9" fill="#BFBFBF" stroke="#000000" stroke-width="0.8636" stroke-miterlimit="10" width="24.7" height="11.9"/>
<rect id="a105" title="A105" x="310.8" y="393.9" fill="#BFBFBF" stroke="#000000" stroke-width="0.8636" stroke-miterlimit="10" width="24.7" height="11"/>
<rect id="a103" title="A103" x="310.8" y="404.9" fill="#BFBFBF" stroke="#000000" stroke-width="0.8636" stroke-miterlimit="10" width="24.7" height="11.9"/>
<rect id="a101" title="A101" x="310.8" y="416.8" fill="#BFBFBF" stroke="#000000" stroke-width="0.8636" stroke-miterlimit="10" width="24.7" height="11.5"/>
<rect id="a102" title="A102" x="265.1" y="417" fill="#BFBFBF" stroke="#000000" stroke-width="0.8636" stroke-miterlimit="10" width="27.9" height="11.3"/>
<rect id="a104" title="A104" x="265.1" y="405.4" fill="#BFBFBF" stroke="#000000" stroke-width="0.8636" stroke-miterlimit="10" width="27.9" height="11.7"/>
<rect id="a106" title="A106" x="265.1" y="393.8" fill="#BFBFBF" stroke="#000000" stroke-width="0.8636" stroke-miterlimit="10" width="27.9" height="11.7"/>
<rect id="a108" title="A108" x="265.1" y="382.2" fill="#BFBFBF" stroke="#000000" stroke-width="0.8636" stroke-miterlimit="10" width="27.9" height="11.6"/>
<rect id="a112" title="A112" x="265.2" y="335.5" fill="#BFBFBF" stroke="#000000" stroke-width="0.8636" stroke-miterlimit="10" width="19.3" height="23.5"/>
<rect id="a110" title="A110" x="265.2" y="359" fill="#BFBFBF" stroke="#000000" stroke-width="0.8636" stroke-miterlimit="10" width="19.3" height="23.2"/>
<path id="salleduconseil" title="Salle du conseil" fill="#BFBFBF" stroke="#000000" stroke-width="0.8636" stroke-miterlimit="10" d="M290.5,312.2h23l0.2,53
	c0,0,0.2,9.7-11.7,9.7c-11.9,0-11.9-9.7-11.9-9.7L290.5,312.2z"/>
<polygon fill="#404040" stroke="#000000" stroke-width="0.8636" stroke-miterlimit="10" points="409.9,549.1 409.9,958.6 
	662.8,958.6 662.8,549.1 604.5,549.1 604.5,706.7 468.1,706.7 468.1,549.5 "/>
<rect x="409.9" y="549.1" fill="#BFBFBF" stroke="#000000" stroke-width="0.8636" stroke-miterlimit="10" width="30.6" height="46.7"/>
<rect x="409.9" y="595.8" fill="#BFBFBF" stroke="#000000" stroke-width="0.8636" stroke-miterlimit="10" width="30.6" height="44.3"/>
<rect x="409.9" y="640" fill="#BFBFBF" stroke="#000000" stroke-width="0.8636" stroke-miterlimit="10" width="30.6" height="45.2"/>
<rect x="409.9" y="685.3" fill="#BFBFBF" stroke="#000000" stroke-width="0.8636" stroke-miterlimit="10" width="19.5" height="30.6"/>
<rect x="409.9" y="715.9" fill="#BFBFBF" stroke="#000000" stroke-width="0.8636" stroke-miterlimit="10" width="30.6" height="45.9"/>
<rect x="409.9" y="761.8" fill="#BFBFBF" stroke="#000000" stroke-width="0.8636" stroke-miterlimit="10" width="30.6" height="44.1"/>
<rect x="409.9" y="805.9" fill="#BFBFBF" stroke="#000000" stroke-width="0.8636" stroke-miterlimit="10" width="30.6" height="39.9"/>
<rect x="409.9" y="845.8" fill="#BFBFBF" stroke="#000000" stroke-width="0.8636" stroke-miterlimit="10" width="30.6" height="26.3"/>
<rect x="409.9" y="939.6" fill="#BFBFBF" stroke="#000000" stroke-width="0.8636" stroke-miterlimit="10" width="33.1" height="19"/>
<rect x="443" y="939.6" fill="#BFBFBF" stroke="#000000" stroke-width="0.8636" stroke-miterlimit="10" width="24.8" height="19"/>
<rect x="467.8" y="939.6" fill="#BFBFBF" stroke="#000000" stroke-width="0.8636" stroke-miterlimit="10" width="11.7" height="19"/>
<rect x="479.5" y="939.6" fill="#BFBFBF" stroke="#000000" stroke-width="0.8636" stroke-miterlimit="10" width="19.5" height="19"/>
<rect x="498.9" y="939.6" fill="#BFBFBF" stroke="#000000" stroke-width="0.8636" stroke-miterlimit="10" width="12.6" height="19"/>
<rect x="511.6" y="939.6" fill="#BFBFBF" stroke="#000000" stroke-width="0.8636" stroke-miterlimit="10" width="18.5" height="19"/>
<rect x="530" y="939.6" fill="#BFBFBF" stroke="#000000" stroke-width="0.8636" stroke-miterlimit="10" width="12.2" height="19"/>
<rect x="544.6" y="939.6" fill="#BFBFBF" stroke="#000000" stroke-width="0.8636" stroke-miterlimit="10" width="11.2" height="19"/>
<rect x="555.8" y="939.6" fill="#BFBFBF" stroke="#000000" stroke-width="0.8636" stroke-miterlimit="10" width="24.8" height="19"/>
<rect x="580.6" y="939.6" fill="#BFBFBF" stroke="#000000" stroke-width="0.8636" stroke-miterlimit="10" width="12.2" height="19"/>
<rect x="632.7" y="939.6" fill="#BFBFBF" stroke="#000000" stroke-width="0.8636" stroke-miterlimit="10" width="30.2" height="19"/>
<rect x="632.7" y="899.8" fill="#BFBFBF" stroke="#000000" stroke-width="0.8636" stroke-miterlimit="10" width="30.2" height="39.9"/>
<rect x="632.7" y="865.2" fill="#BFBFBF" stroke="#000000" stroke-width="0.8636" stroke-miterlimit="10" width="30.2" height="34.5"/>
<rect x="632.7" y="845.8" fill="#BFBFBF" stroke="#000000" stroke-width="0.8636" stroke-miterlimit="10" width="30.2" height="19.5"/>
<rect x="632.7" y="798.6" fill="#BFBFBF" stroke="#000000" stroke-width="0.8636" stroke-miterlimit="10" width="30.2" height="47.2"/>
<rect x="632.7" y="761.8" fill="#BFBFBF" stroke="#000000" stroke-width="0.8636" stroke-miterlimit="10" width="30.2" height="36.8"/>
<rect x="632.7" y="715.9" fill="#BFBFBF" stroke="#000000" stroke-width="0.8636" stroke-miterlimit="10" width="30.2" height="45.9"/>
<rect x="643.8" y="685.3" fill="#BFBFBF" stroke="#000000" stroke-width="0.8636" stroke-miterlimit="10" width="19" height="30.6"/>
<rect x="632.7" y="640" fill="#BFBFBF" stroke="#000000" stroke-width="0.8636" stroke-miterlimit="10" width="30.2" height="45.2"/>
<rect x="632.7" y="595.8" fill="#BFBFBF" stroke="#000000" stroke-width="0.8636" stroke-miterlimit="10" width="30.2" height="44.3"/>
<rect x="632.7" y="549.1" fill="#BFBFBF" stroke="#000000" stroke-width="0.8636" stroke-miterlimit="10" width="30.2" height="46.7"/>
<rect x="448.8" y="715.9" fill="#BFBFBF" stroke="#000000" stroke-width="0.8636" stroke-miterlimit="10" width="33.1" height="45.9"/>
<rect x="592.8" y="715.9" fill="#BFBFBF" stroke="#000000" stroke-width="0.8636" stroke-miterlimit="10" width="31.1" height="45.9"/>
<rect x="592.8" y="761.8" fill="#BFBFBF" stroke="#000000" stroke-width="0.8636" stroke-miterlimit="10" width="31.1" height="18.4"/>
<rect x="592.8" y="830.7" fill="#BFBFBF" stroke="#000000" stroke-width="0.8636" stroke-miterlimit="10" width="31.1" height="34.5"/>
<rect x="592.8" y="865.2" fill="#BFBFBF" stroke="#000000" stroke-width="0.8636" stroke-miterlimit="10" width="31.1" height="41.3"/>
<rect x="448.8" y="830.7" fill="#BFBFBF" stroke="#000000" stroke-width="0.8636" stroke-miterlimit="10" width="34.5" height="34.5"/>
<rect x="448.8" y="865.2" fill="#BFBFBF" stroke="#000000" stroke-width="0.8636" stroke-miterlimit="10" width="34.5" height="41.3"/>
<rect x="481.9" y="761.8" fill="#BFBFBF" stroke="#000000" stroke-width="0.8636" stroke-miterlimit="10" width="110.9" height="27"/>
<rect x="448.8" y="761.8" fill="#BFBFBF" stroke="#000000" stroke-width="0.8636" stroke-miterlimit="10" width="33.1" height="18.4"/>
<rect x="481.9" y="798.6" fill="#BFBFBF" stroke="#000000" stroke-width="0.8636" stroke-miterlimit="10" width="110.9" height="35"/>
<rect x="592.8" y="816.1" fill="#BFBFBF" stroke="#000000" stroke-width="0.8636" stroke-miterlimit="10" width="31.1" height="14.6"/>
<rect x="448.8" y="816.1" fill="#BFBFBF" stroke="#000000" stroke-width="0.8636" stroke-miterlimit="10" width="34.5" height="14.6"/>
<rect x="481.9" y="906.6" fill="#BFBFBF" stroke="#000000" stroke-width="0.8636" stroke-miterlimit="10" width="19.5" height="20.4"/>
<rect x="448.8" y="906.6" fill="#BFBFBF" stroke="#000000" stroke-width="0.8636" stroke-miterlimit="10" width="21.9" height="20.4"/>
<rect x="501.3" y="906.6" fill="#BFBFBF" stroke="#000000" stroke-width="0.8636" stroke-miterlimit="10" width="30.6" height="20.4"/>
<rect x="532" y="906.6" fill="#BFBFBF" stroke="#000000" stroke-width="0.8636" stroke-miterlimit="10" width="10.2" height="20.4"/>
<rect x="542.2" y="906.6" fill="#BFBFBF" stroke="#000000" stroke-width="0.8636" stroke-miterlimit="10" width="18.5" height="20.4"/>
<rect x="560.7" y="906.6" fill="#BFBFBF" stroke="#000000" stroke-width="0.8636" stroke-miterlimit="10" width="17.5" height="20.4"/>
<rect x="580.6" y="906.6" fill="#BFBFBF" stroke="#000000" stroke-width="0.8636" stroke-miterlimit="10" width="12.2" height="20.4"/>
</svg>
