<?xml version="1.0" encoding="utf-8"?>
<!-- Generator: Adobe Illustrator 18.0.0, SVG Export Plug-In . SVG Version: 6.00 Build 0)  -->
<!DOCTYPE svg PUBLIC "-//W3C//DTD SVG 1.1//EN" "http://www.w3.org/Graphics/SVG/1.1/DTD/svg11.dtd">
<svg version="1.1" id="Calque_3" xmlns="http://www.w3.org/2000/svg" xmlns:xlink="http://www.w3.org/1999/xlink" x="0px" y="0px"
	 viewBox="0 0 595.3 841.9" enable-background="new 0 0 595.3 841.9" xml:space="preserve">
<polygon id="contour" fill="#D9D9D9" points="531.5,396.2 505.7,396.2 505.7,120.4 453,142.7 452.8,360 382.4,365.5 382.4,171.7 
	330.7,195.6 330.7,369.5 260.9,374.9 260.9,230.9 208.3,263.4 208.3,396.2 63.7,396.2 63.7,426 327.2,426 508,426 531.5,426 "/>
<polygon fill="#404040" stroke="#1D1D1B" stroke-width="1.4844" stroke-miterlimit="10" points="449.8,141.8 449.8,396 63.4,396 
	63.4,425.9 530.6,425.9 530.6,396 507.8,396 507.8,116.2 "/>
<polygon id="e222" fill="#BFBFBF" stroke="#1D1D1B" stroke-width="1.479" stroke-miterlimit="10" points="449.8,179.9 478.6,179.9 
	478.6,143.5 473.2,131.5 449.8,141.8 "/>
<rect id="e219" title="E219" x="484.9" y="144" fill="#BFBFBF" stroke="#1D1D1B" stroke-width="1.479" stroke-miterlimit="10" width="22.9" height="22.4"/>
<rect id="e217" title="E217" x="484.9" y="166.4" fill="#BFBFBF" stroke="#1D1D1B" stroke-width="1.479" stroke-miterlimit="10" width="22.9" height="9.1"/>
<rect id="e215" title="E215" x="484.9" y="175.5" fill="#BFBFBF" stroke="#1D1D1B" stroke-width="1.479" stroke-miterlimit="10" width="22.9" height="27.2"/>
<rect id="e213" title="E213" x="484.9" y="202.7" fill="#BFBFBF" stroke="#1D1D1B" stroke-width="1.479" stroke-miterlimit="10" width="22.9" height="8.9"/>
<rect id="e211" title="E211" x="484.9" y="211.6" fill="#BFBFBF" stroke="#1D1D1B" stroke-width="1.479" stroke-miterlimit="10" width="22.9" height="27.1"/>
<rect id="e209" title="E209" x="484.9" y="238.6" fill="#BFBFBF" stroke="#1D1D1B" stroke-width="1.479" stroke-miterlimit="10" width="22.9" height="27.3"/>
<rect id="e207" title="E207" x="484.9" y="266" fill="#BFBFBF" stroke="#1D1D1B" stroke-width="1.479" stroke-miterlimit="10" width="22.9" height="27"/>
<rect id="e205" title="E205" x="484.9" y="292.9" fill="#BFBFBF" stroke="#1D1D1B" stroke-width="1.479" stroke-miterlimit="10" width="22.9" height="9.1"/>
<rect id="e201e203" title="E201-203" x="484.9" y="302" fill="#BFBFBF" stroke="#1D1D1B" stroke-width="1.479" stroke-miterlimit="10" width="22.9" height="33"/>
<rect id="e220" title="E220" x="449.8" y="179.9" fill="#BFBFBF" stroke="#1D1D1B" stroke-width="1.479" stroke-miterlimit="10" width="28.7" height="9"/>
<rect id="e218" title="E218" x="449.8" y="188.9" fill="#BFBFBF" stroke="#1D1D1B" stroke-width="1.479" stroke-miterlimit="10" width="28.7" height="22.6"/>
<rect id="e216" title="E216" x="449.8" y="211.5" fill="#BFBFBF" stroke="#1D1D1B" stroke-width="1.479" stroke-miterlimit="10" width="28.7" height="27.3"/>
<rect id="e210" title="E210" x="449.8" y="238.8" fill="#BFBFBF" stroke="#1D1D1B" stroke-width="1.479" stroke-miterlimit="10" width="28.7" height="31.6"/>
<rect id="e206" title="E206" x="449.8" y="270.4" fill="#BFBFBF" stroke="#1D1D1B" stroke-width="1.479" stroke-miterlimit="10" width="28.7" height="31.4"/>
<rect id="e202" title="E202" x="449.8" y="301.9" fill="#BFBFBF" stroke="#1D1D1B" stroke-width="1.479" stroke-miterlimit="10" width="28.7" height="36.1"/>
<rect id="s230" title="S230" x="74.7" y="403.7" fill="#BFBFBF" stroke="#1D1D1B" stroke-width="1.479" stroke-miterlimit="10" width="3" height="22.2"/>
<rect id="s229" title="S229" x="77.7" y="403.7" fill="#BFBFBF" stroke="#1D1D1B" stroke-width="1.479" stroke-miterlimit="10" width="4.7" height="22.2"/>
<rect id="s228" title="S228" x="82.4" y="403.7" fill="#BFBFBF" stroke="#1D1D1B" stroke-width="1.479" stroke-miterlimit="10" width="8.9" height="22.2"/>
<rect id="s227" title="S227" x="91.3" y="403.7" fill="#BFBFBF" stroke="#1D1D1B" stroke-width="1.479" stroke-miterlimit="10" width="13.6" height="22.2"/>
<rect id="s226" title="S226" x="104.9" y="403.7" fill="#BFBFBF" stroke="#1D1D1B" stroke-width="1.479" stroke-miterlimit="10" width="13.7" height="22.2"/>
<rect id="s225" title="S225" x="118.6" y="403.7" fill="#BFBFBF" stroke="#1D1D1B" stroke-width="1.479" stroke-miterlimit="10" width="18" height="22.2"/>
<rect id="s224" title="S224" x="136.6" y="403.7" fill="#BFBFBF" stroke="#1D1D1B" stroke-width="1.479" stroke-miterlimit="10" width="8.9" height="22.2"/>
<rect id="s223" title="S223" x="145.5" y="403.7" fill="#BFBFBF" stroke="#1D1D1B" stroke-width="1.479" stroke-miterlimit="10" width="13.7" height="22.2"/>
<rect id="s222" title="S222" x="159.3" y="403.7" fill="#BFBFBF" stroke="#1D1D1B" stroke-width="1.479" stroke-miterlimit="10" width="9" height="22.2"/>
<rect id="s221" title="S221" x="168.3" y="403.7" fill="#BFBFBF" stroke="#1D1D1B" stroke-width="1.479" stroke-miterlimit="10" width="13.6" height="22.2"/>
<rect id="s220" title="S220" x="181.8" y="403.7" fill="#BFBFBF" stroke="#1D1D1B" stroke-width="1.479" stroke-miterlimit="10" width="9" height="22.2"/>
<rect id="s219" title="S219" x="190.9" y="403.7" fill="#BFBFBF" stroke="#1D1D1B" stroke-width="1.479" stroke-miterlimit="10" width="8.9" height="22.2"/>
<rect id="s218" title="S218" x="199.7" y="403.7" fill="#BFBFBF" stroke="#1D1D1B" stroke-width="1.479" stroke-miterlimit="10" width="9" height="22.2"/>
<rect id="s217" title="S217" x="208.8" y="403.7" fill="#BFBFBF" stroke="#1D1D1B" stroke-width="1.479" stroke-miterlimit="10" width="18" height="22.2"/>
<rect id="s216" title="S216" x="226.9" y="403.7" fill="#BFBFBF" stroke="#1D1D1B" stroke-width="1.479" stroke-miterlimit="10" width="9" height="22.2"/>
<rect id="s215" title="S215" x="235.9" y="403.7" fill="#BFBFBF" stroke="#1D1D1B" stroke-width="1.479" stroke-miterlimit="10" width="9" height="22.2"/>
<rect id="s214" title="S214" x="245" y="403.7" fill="#BFBFBF" stroke="#1D1D1B" stroke-width="1.479" stroke-miterlimit="10" width="9.2" height="22.2"/>
<rect id="s213" title="S213" x="254.1" y="403.7" fill="#BFBFBF" stroke="#1D1D1B" stroke-width="1.479" stroke-miterlimit="10" width="9" height="22.2"/>
<rect id="s212bissalledereunionelec" title="S212 Bis, Salle de réunion Elec" x="263.2" y="403.7" fill="#BFBFBF" stroke="#1D1D1B" stroke-width="1.479" stroke-miterlimit="10" width="18" height="22.2"/>
<rect id="s212" title="S212" x="281.1" y="403.7" fill="#BFBFBF" stroke="#1D1D1B" stroke-width="1.479" stroke-miterlimit="10" width="13.6" height="22.2"/>
<rect id="s211" title="S211" x="294.7" y="403.7" fill="#BFBFBF" stroke="#1D1D1B" stroke-width="1.479" stroke-miterlimit="10" width="18.2" height="22.2"/>
<rect id="s210" title="S210" x="312.9" y="403.7" fill="#BFBFBF" stroke="#1D1D1B" stroke-width="1.479" stroke-miterlimit="10" width="13.6" height="22.2"/>
<rect id="s209" title="S209" x="362.7" y="403.8" fill="#BFBFBF" stroke="#1D1D1B" stroke-width="1.479" stroke-miterlimit="10" width="17.9" height="22.1"/>
<rect id="s208" title="S208" x="380.5" y="403.8" fill="#BFBFBF" stroke="#1D1D1B" stroke-width="1.479" stroke-miterlimit="10" width="18.2" height="22.1"/>
<rect id="s207" title="S207" x="398.7" y="403.8" fill="#BFBFBF" stroke="#1D1D1B" stroke-width="1.479" stroke-miterlimit="10" width="9" height="22.1"/>
<rect id="s206" title="S206" x="407.8" y="403.8" fill="#BFBFBF" stroke="#1D1D1B" stroke-width="1.479" stroke-miterlimit="10" width="13.4" height="22.1"/>
<rect id="s204" title="S204" x="421.2" y="403.8" fill="#BFBFBF" stroke="#1D1D1B" stroke-width="1.479" stroke-miterlimit="10" width="36.3" height="22.1"/>
<rect id="s203" title="S203" x="457.5" y="403.8" fill="#BFBFBF" stroke="#1D1D1B" stroke-width="1.479" stroke-miterlimit="10" width="13.3" height="22.1"/>
<rect id="s202" title="S202" x="502.7" y="403.8" fill="#BFBFBF" stroke="#1D1D1B" stroke-width="1.479" stroke-miterlimit="10" width="8.9" height="21.9"/>
<rect id="s201" title="S201" x="511.7" y="403.8" fill="#BFBFBF" stroke="#1D1D1B" stroke-width="1.479" stroke-miterlimit="10" width="18.9" height="22.1"/>
<polygon fill="#404040" stroke="#1D1D1B" stroke-width="1.4844" stroke-miterlimit="10" points="326.5,455.8 369.5,455.8 
	369.5,534.3 464.1,534.3 464.1,455.8 507.2,455.8 507.2,746 326.5,746 "/>
<rect x="326.5" y="455.8" fill="#BFBFBF" stroke="#1D1D1B" stroke-width="1.479" stroke-miterlimit="10" width="23.1" height="14.7"/>
<rect x="326.5" y="470.5" fill="#BFBFBF" stroke="#1D1D1B" stroke-width="1.479" stroke-miterlimit="10" width="16.2" height="9"/>
<rect x="326.5" y="479.5" fill="#BFBFBF" stroke="#1D1D1B" stroke-width="1.479" stroke-miterlimit="10" width="16.2" height="13.4"/>
<rect x="326.5" y="493" fill="#BFBFBF" stroke="#1D1D1B" stroke-width="1.479" stroke-miterlimit="10" width="16.2" height="9.1"/>
<rect x="326.5" y="502.1" fill="#BFBFBF" stroke="#1D1D1B" stroke-width="1.479" stroke-miterlimit="10" width="16.2" height="13.4"/>
<rect x="326.5" y="515.5" fill="#BFBFBF" stroke="#1D1D1B" stroke-width="1.479" stroke-miterlimit="10" width="16.2" height="13.6"/>
<rect x="326.5" y="529.1" fill="#BFBFBF" stroke="#1D1D1B" stroke-width="1.479" stroke-miterlimit="10" width="16.2" height="9.1"/>
<rect x="326.5" y="538.2" fill="#BFBFBF" stroke="#1D1D1B" stroke-width="1.479" stroke-miterlimit="10" width="23.1" height="13.2"/>
<rect x="326.5" y="551.4" fill="#BFBFBF" stroke="#1D1D1B" stroke-width="1.479" stroke-miterlimit="10" width="16.2" height="21.9"/>
<path fill="#BFBFBF" stroke="#1D1D1B" stroke-width="1.479" stroke-miterlimit="10" d="M342.6,587.2c0-3.6,0-14,0-14h-16.2v14H342.6
	z"/>
<rect x="342.6" y="573.8" fill="#BFBFBF" stroke="#1D1D1B" stroke-width="1.479" stroke-miterlimit="10" width="6.9" height="9.4"/>
<rect x="326.5" y="587.2" fill="#BFBFBF" stroke="#1D1D1B" stroke-width="1.479" stroke-miterlimit="10" width="16.2" height="13.6"/>
<rect x="326.5" y="600.9" fill="#BFBFBF" stroke="#1D1D1B" stroke-width="1.479" stroke-miterlimit="10" width="16.2" height="13.3"/>
<rect x="342.6" y="551.4" fill="#BFBFBF" stroke="#1D1D1B" stroke-width="1.479" stroke-miterlimit="10" width="6.9" height="22.4"/>
<rect x="342.6" y="591.4" fill="#BFBFBF" stroke="#1D1D1B" stroke-width="1.479" stroke-miterlimit="10" width="6.9" height="19.2"/>
<rect x="326.5" y="614.2" fill="#BFBFBF" stroke="#1D1D1B" stroke-width="1.479" stroke-miterlimit="10" width="16.2" height="13.7"/>
<rect x="326.5" y="627.9" fill="#BFBFBF" stroke="#1D1D1B" stroke-width="1.479" stroke-miterlimit="10" width="16.2" height="13.7"/>
<rect x="326.5" y="641.6" fill="#BFBFBF" stroke="#1D1D1B" stroke-width="1.479" stroke-miterlimit="10" width="16.2" height="13.3"/>
<rect x="326.5" y="654.9" fill="#BFBFBF" stroke="#1D1D1B" stroke-width="1.479" stroke-miterlimit="10" width="23.1" height="9.8"/>
<rect x="342.6" y="618.5" fill="#BFBFBF" stroke="#1D1D1B" stroke-width="1.479" stroke-miterlimit="10" width="6.9" height="18.8"/>
<rect x="326.5" y="664.8" fill="#BFBFBF" stroke="#1D1D1B" stroke-width="1.479" stroke-miterlimit="10" width="23.1" height="19.1"/>
<rect x="326.5" y="708.4" fill="#BFBFBF" stroke="#1D1D1B" stroke-width="1.479" stroke-miterlimit="10" width="16.2" height="13.7"/>
<rect x="326.5" y="730.5" fill="#BFBFBF" stroke="#1D1D1B" stroke-width="1.479" stroke-miterlimit="10" width="19.6" height="15.4"/>
<rect x="346.1" y="730.5" fill="#BFBFBF" stroke="#1D1D1B" stroke-width="1.479" stroke-miterlimit="10" width="9.3" height="15.4"/>
<rect x="355.4" y="730.5" fill="#BFBFBF" stroke="#1D1D1B" stroke-width="1.479" stroke-miterlimit="10" width="13.3" height="15.4"/>
<rect x="368.7" y="730.5" fill="#BFBFBF" stroke="#1D1D1B" stroke-width="1.479" stroke-miterlimit="10" width="8.9" height="15.4"/>
<rect x="377.5" y="730.5" fill="#BFBFBF" stroke="#1D1D1B" stroke-width="1.479" stroke-miterlimit="10" width="8.6" height="15.4"/>
<rect x="386.1" y="730.5" fill="#BFBFBF" stroke="#1D1D1B" stroke-width="1.479" stroke-miterlimit="10" width="13.3" height="15.4"/>
<rect x="399.4" y="730.5" fill="#BFBFBF" stroke="#1D1D1B" stroke-width="1.479" stroke-miterlimit="10" width="9" height="15.4"/>
<rect x="408.4" y="730.5" fill="#BFBFBF" stroke="#1D1D1B" stroke-width="1.479" stroke-miterlimit="10" width="8.5" height="15.4"/>
<rect x="448" y="730.5" fill="#BFBFBF" stroke="#1D1D1B" stroke-width="1.479" stroke-miterlimit="10" width="8.3" height="15.4"/>
<polyline fill="#BFBFBF" stroke="#1D1D1B" stroke-width="1.479" stroke-miterlimit="10" points="448,730.5 430.1,730.5 430.1,746 
	448,746 "/>
<rect x="416.8" y="730.5" fill="#BFBFBF" stroke="#1D1D1B" stroke-width="1.479" stroke-miterlimit="10" width="13.3" height="15.4"/>
<path fill="#BFBFBF" stroke="#1D1D1B" stroke-width="1.479" stroke-miterlimit="10" d="M478.3,746c0.4,0,28.9,0,28.9,0v-42.4h-28.9
	V746z"/>
<rect x="456.3" y="708.9" fill="#BFBFBF" stroke="#1D1D1B" stroke-width="1.479" stroke-miterlimit="10" width="15.5" height="13.2"/>
<rect x="442.6" y="707.5" fill="#BFBFBF" stroke="#1D1D1B" stroke-width="1.479" stroke-miterlimit="10" width="13.7" height="14.5"/>
<rect x="434.1" y="707.5" fill="#BFBFBF" stroke="#1D1D1B" stroke-width="1.479" stroke-miterlimit="10" width="8.4" height="14.5"/>
<rect x="421.8" y="707.5" fill="#BFBFBF" stroke="#1D1D1B" stroke-width="1.479" stroke-miterlimit="10" width="12.3" height="14.5"/>
<rect x="409.4" y="707.5" fill="#BFBFBF" stroke="#1D1D1B" stroke-width="1.479" stroke-miterlimit="10" width="12.5" height="14.5"/>
<rect x="400.9" y="707.5" fill="#BFBFBF" stroke="#1D1D1B" stroke-width="1.479" stroke-miterlimit="10" width="8.4" height="14.5"/>
<rect x="392.8" y="707.5" fill="#BFBFBF" stroke="#1D1D1B" stroke-width="1.479" stroke-miterlimit="10" width="8.2" height="14.5"/>
<rect x="379.9" y="707.5" fill="#BFBFBF" stroke="#1D1D1B" stroke-width="1.479" stroke-miterlimit="10" width="12.9" height="14.5"/>
<rect x="369.9" y="708.4" fill="#BFBFBF" stroke="#1D1D1B" stroke-width="1.479" stroke-miterlimit="10" width="10" height="13.7"/>
<rect x="356.2" y="708.4" fill="#BFBFBF" stroke="#1D1D1B" stroke-width="1.479" stroke-miterlimit="10" width="13.7" height="13.7"/>
<rect x="356.2" y="702.6" fill="#BFBFBF" stroke="#1D1D1B" stroke-width="1.479" stroke-miterlimit="10" width="6.9" height="5.8"/>
<polygon fill="#BFBFBF" stroke="#1D1D1B" stroke-width="1.479" stroke-miterlimit="10" points="362,698.1 379.9,698.1 379.9,708.4 
	363.1,708.4 363.1,702.6 362,702.6 "/>
<rect x="362" y="683.9" fill="#BFBFBF" stroke="#1D1D1B" stroke-width="1.479" stroke-miterlimit="10" width="17.9" height="14.3"/>
<rect x="362" y="674.3" fill="#BFBFBF" stroke="#1D1D1B" stroke-width="1.479" stroke-miterlimit="10" width="17.9" height="9.6"/>
<path fill="#BFBFBF" stroke="#1D1D1B" stroke-width="1.479" stroke-miterlimit="10" d="M362,674.3c1.7,0,17.9,0,17.9,0v-9.6H362
	V674.3z"/>
<polygon fill="#BFBFBF" stroke="#1D1D1B" stroke-width="1.479" stroke-miterlimit="10" points="362,664.8 379.9,664.8 379.9,659.8 
	378.2,659.8 378.2,654.9 362,654.9 "/>
<polygon fill="#BFBFBF" stroke="#1D1D1B" stroke-width="1.479" stroke-miterlimit="10" points="356.2,654.9 378.2,654.9 
	378.2,632.1 357.7,632.1 357.7,643.5 356.2,643.5 "/>
<rect x="365.6" y="617.7" fill="#BFBFBF" stroke="#1D1D1B" stroke-width="1.479" stroke-miterlimit="10" width="12.6" height="7.9"/>
<rect x="356.2" y="617.7" fill="#BFBFBF" stroke="#1D1D1B" stroke-width="1.479" stroke-miterlimit="10" width="9.4" height="7.9"/>
<rect x="356.2" y="609.7" fill="#BFBFBF" stroke="#1D1D1B" stroke-width="1.479" stroke-miterlimit="10" width="22" height="8"/>
<rect x="356.6" y="573.8" fill="#BFBFBF" stroke="#1D1D1B" stroke-width="1.479" stroke-miterlimit="10" width="21.6" height="35.9"/>
<path fill="#BFBFBF" stroke="#1D1D1B" stroke-width="1.479" stroke-miterlimit="10" d="M378.2,604.1c1.5,0,78.1,0,78.1,0
	s0.6,51.8,0,51.8c-0.6,0-78.1,0-78.1,0V604.1z"/>
<rect x="456.5" y="679.1" fill="#BFBFBF" stroke="#1D1D1B" stroke-width="1.479" stroke-miterlimit="10" width="15.3" height="29.8"/>
<rect x="478.3" y="679.1" fill="#BFBFBF" stroke="#1D1D1B" stroke-width="1.479" stroke-miterlimit="10" width="28.9" height="14.9"/>
<rect x="478.3" y="694" fill="#BFBFBF" stroke="#1D1D1B" stroke-width="1.479" stroke-miterlimit="10" width="28.9" height="9.5"/>
<rect x="492.8" y="664.8" fill="#BFBFBF" stroke="#1D1D1B" stroke-width="1.479" stroke-miterlimit="10" width="14.5" height="14.3"/>
<rect x="485.1" y="641.6" fill="#BFBFBF" stroke="#1D1D1B" stroke-width="1.479" stroke-miterlimit="10" width="22.1" height="23.1"/>
<rect x="485.1" y="618.5" fill="#BFBFBF" stroke="#1D1D1B" stroke-width="1.479" stroke-miterlimit="10" width="22.1" height="23.1"/>
<rect x="485.1" y="596.7" fill="#BFBFBF" stroke="#1D1D1B" stroke-width="1.479" stroke-miterlimit="10" width="22.1" height="21.9"/>
<rect x="456.5" y="632.1" fill="#BFBFBF" stroke="#1D1D1B" stroke-width="1.479" stroke-miterlimit="10" width="21.8" height="11.4"/>
<rect x="456.5" y="643.5" fill="#BFBFBF" stroke="#1D1D1B" stroke-width="1.479" stroke-miterlimit="10" width="21.8" height="11.4"/>
<rect x="467.4" y="617.7" fill="#BFBFBF" stroke="#1D1D1B" stroke-width="1.479" stroke-miterlimit="10" width="11.3" height="7.9"/>
<rect x="456.5" y="617.7" fill="#BFBFBF" stroke="#1D1D1B" stroke-width="1.479" stroke-miterlimit="10" width="10.9" height="7.9"/>
<rect x="456.5" y="595.5" fill="#BFBFBF" stroke="#1D1D1B" stroke-width="1.479" stroke-miterlimit="10" width="22.2" height="22.1"/>
<rect x="485.1" y="573.8" fill="#BFBFBF" stroke="#1D1D1B" stroke-width="1.479" stroke-miterlimit="10" width="22.1" height="22.8"/>
<rect x="455.9" y="573.8" fill="#BFBFBF" stroke="#1D1D1B" stroke-width="1.479" stroke-miterlimit="10" width="22.8" height="21.7"/>
<rect x="493.3" y="551.4" fill="#BFBFBF" stroke="#1D1D1B" stroke-width="1.479" stroke-miterlimit="10" width="14" height="22.4"/>
<rect x="464.6" y="558.3" fill="#BFBFBF" stroke="#1D1D1B" stroke-width="1.479" stroke-miterlimit="10" width="7.5" height="15.5"/>
<rect x="457.5" y="558.3" fill="#BFBFBF" stroke="#1D1D1B" stroke-width="1.479" stroke-miterlimit="10" width="7.1" height="15.5"/>
<polygon fill="#BFBFBF" stroke="#1D1D1B" stroke-width="1.479" stroke-miterlimit="10" points="440.8,558.3 457.5,558.3 
	457.5,573.8 454.4,573.8 454.4,575.2 440.8,575.2 "/>
<rect x="429.2" y="558.3" fill="#BFBFBF" stroke="#1D1D1B" stroke-width="1.479" stroke-miterlimit="10" width="11.6" height="16.9"/>
<rect x="417.4" y="558.3" fill="#BFBFBF" stroke="#1D1D1B" stroke-width="1.479" stroke-miterlimit="10" width="11.8" height="16.9"/>
<rect x="405.8" y="558.3" fill="#BFBFBF" stroke="#1D1D1B" stroke-width="1.479" stroke-miterlimit="10" width="11.6" height="16.9"/>
<rect x="394.3" y="558.3" fill="#BFBFBF" stroke="#1D1D1B" stroke-width="1.479" stroke-miterlimit="10" width="11.5" height="16.9"/>
<polygon fill="#BFBFBF" stroke="#1D1D1B" stroke-width="1.479" stroke-miterlimit="10" points="394.3,558.3 378.2,558.3 
	378.2,573.8 380.6,573.8 380.6,575.2 394.3,575.2 "/>
<rect x="370.3" y="558.3" fill="#BFBFBF" stroke="#1D1D1B" stroke-width="1.479" stroke-miterlimit="10" width="7.9" height="15.5"/>
<rect x="363" y="558.3" fill="#BFBFBF" stroke="#1D1D1B" stroke-width="1.479" stroke-miterlimit="10" width="7.3" height="15"/>
<rect x="370.3" y="534.3" fill="#BFBFBF" stroke="#1D1D1B" stroke-width="1.479" stroke-miterlimit="10" width="12.2" height="17"/>
<rect x="382.5" y="534.3" fill="#BFBFBF" stroke="#1D1D1B" stroke-width="1.479" stroke-miterlimit="10" width="11.8" height="17"/>
<rect x="394.3" y="534.3" fill="#BFBFBF" stroke="#1D1D1B" stroke-width="1.479" stroke-miterlimit="10" width="11.5" height="17"/>
<rect x="405.8" y="534.3" fill="#BFBFBF" stroke="#1D1D1B" stroke-width="1.479" stroke-miterlimit="10" width="11.6" height="17"/>
<rect x="417.4" y="534.3" fill="#BFBFBF" stroke="#1D1D1B" stroke-width="1.479" stroke-miterlimit="10" width="23.4" height="17"/>
<rect x="440.8" y="534.3" fill="#BFBFBF" stroke="#1D1D1B" stroke-width="1.479" stroke-miterlimit="10" width="11.8" height="17"/>
<rect x="452.6" y="534.3" fill="#BFBFBF" stroke="#1D1D1B" stroke-width="1.479" stroke-miterlimit="10" width="12" height="17"/>
<rect x="485.1" y="497.7" fill="#BFBFBF" stroke="#1D1D1B" stroke-width="1.479" stroke-miterlimit="10" width="22.1" height="53.7"/>
<polygon fill="#BFBFBF" stroke="#1D1D1B" stroke-width="1.479" stroke-miterlimit="10" points="478.7,535.6 478.7,521.3 
	464.1,521.3 464.1,534.3 464.1,536 "/>
<rect x="464.1" y="508.7" fill="#BFBFBF" stroke="#1D1D1B" stroke-width="1.479" stroke-miterlimit="10" width="14.6" height="12.6"/>
<path fill="#BFBFBF" stroke="#1D1D1B" stroke-width="1.479" stroke-miterlimit="10" d="M478.7,508.7V496h-14.6c0,0-0.6,12.7,0,12.7
	S478.7,508.7,478.7,508.7z"/>
<rect x="464.1" y="483.1" fill="#BFBFBF" stroke="#1D1D1B" stroke-width="1.479" stroke-miterlimit="10" width="14.6" height="12.9"/>
<rect x="490.8" y="484.1" fill="#BFBFBF" stroke="#1D1D1B" stroke-width="1.479" stroke-miterlimit="10" width="16.4" height="13.6"/>
<rect x="490.8" y="470.5" fill="#BFBFBF" stroke="#1D1D1B" stroke-width="1.479" stroke-miterlimit="10" width="16.4" height="13.6"/>
<rect x="485.1" y="455.8" fill="#BFBFBF" stroke="#1D1D1B" stroke-width="1.479" stroke-miterlimit="10" width="22.1" height="14.7"/>
<rect x="464.1" y="455.8" fill="#BFBFBF" stroke="#1D1D1B" stroke-width="1.479" stroke-miterlimit="10" width="14.6" height="14.7"/>
<rect x="464.1" y="470.5" fill="#BFBFBF" stroke="#1D1D1B" stroke-width="1.479" stroke-miterlimit="10" width="14.6" height="12.6"/>
</svg>
