<?xml version="1.0" encoding="utf-8"?>
<!-- Generator: Adobe Illustrator 18.0.0, SVG Export Plug-In . SVG Version: 6.00 Build 0)  -->
<!DOCTYPE svg PUBLIC "-//W3C//DTD SVG 1.1//EN" "http://www.w3.org/Graphics/SVG/1.1/DTD/svg11.dtd">
<svg version="1.1" id="Calque_2" xmlns="http://www.w3.org/2000/svg" xmlns:xlink="http://www.w3.org/1999/xlink" x="0px" y="0px"
	 viewBox="0 0 595.3 841.9" enable-background="new 0 0 595.3 841.9" xml:space="preserve">
<polygon id="contour" fill="#D9D9D9" points="531.5,396.2 505.7,396.2 505.7,120.4 453,142.7 452.8,360 382.4,365.5 382.4,171.7 
	330.7,195.6 330.7,369.5 260.9,374.9 260.9,230.9 208.3,263.4 208.3,396.2 63.7,396.2 63.7,426 327.2,426 508,426 531.5,426 "/>
<rect x="64" y="395.8" fill="#404040" stroke="#1D1D1B" stroke-width="1.4844" stroke-miterlimit="10" width="467.4" height="29.9"/>
<rect id="s336" title="S336" x="75.3" y="403.5" fill="#BFBFBF" stroke="#1D1D1B" stroke-width="1.4844" stroke-miterlimit="10" width="3.5" height="22.2"/>
<rect id="s335" title="S335" x="78.8" y="403.5" fill="#BFBFBF" stroke="#1D1D1B" stroke-width="1.4844" stroke-miterlimit="10" width="4.2" height="22.2"/>
<rect id="s333atelierrobot" title="S333, Atelier Robot" x="83" y="403.5" fill="#BFBFBF" stroke="#1D1D1B" stroke-width="1.4844" stroke-miterlimit="10" width="31.5" height="22.2"/>
<rect id="s332" title="S332" x="114.6" y="403.5" fill="#BFBFBF" stroke="#1D1D1B" stroke-width="1.4844" stroke-miterlimit="10" width="18.1" height="22.2"/>
<rect id="s331" title="S331" x="132.6" y="403.5" fill="#BFBFBF" stroke="#1D1D1B" stroke-width="1.4844" stroke-miterlimit="10" width="13.7" height="22.2"/>
<rect id="s330" title="S330" x="146.3" y="403.5" fill="#BFBFBF" stroke="#1D1D1B" stroke-width="1.4844" stroke-miterlimit="10" width="9" height="22.2"/>
<rect id="s329" title="S329" x="155.3" y="403.5" fill="#BFBFBF" stroke="#1D1D1B" stroke-width="1.4844" stroke-miterlimit="10" width="9.1" height="22.2"/>
<rect id="s328" title="S328" x="164.4" y="403.5" fill="#BFBFBF" stroke="#1D1D1B" stroke-width="1.4844" stroke-miterlimit="10" width="8.9" height="22.2"/>
<rect id="s327" title="S327" x="173.3" y="403.5" fill="#BFBFBF" stroke="#1D1D1B" stroke-width="1.4844" stroke-miterlimit="10" width="9.1" height="22.2"/>
<rect id="s326" title="S326" x="182.5" y="403.5" fill="#BFBFBF" stroke="#1D1D1B" stroke-width="1.4844" stroke-miterlimit="10" width="9" height="22.2"/>
<rect id="s325" title="S325" x="191.4" y="403.5" fill="#BFBFBF" stroke="#1D1D1B" stroke-width="1.4844" stroke-miterlimit="10" width="9.1" height="22.2"/>
<rect id="s324" title="S324" x="200.6" y="403.5" fill="#BFBFBF" stroke="#1D1D1B" stroke-width="1.4844" stroke-miterlimit="10" width="8.9" height="22.2"/>
<rect id="s323" title="S323" x="209.5" y="403.5" fill="#BFBFBF" stroke="#1D1D1B" stroke-width="1.4844" stroke-miterlimit="10" width="18.1" height="22.2"/>
<rect id="s322" title="S322" x="227.6" y="403.5" fill="#BFBFBF" stroke="#1D1D1B" stroke-width="1.4844" stroke-miterlimit="10" width="13.7" height="22.2"/>
<rect id="s321" title="S321" x="241.4" y="403.5" fill="#BFBFBF" stroke="#1D1D1B" stroke-width="1.4844" stroke-miterlimit="10" width="8.9" height="22.2"/>
<rect id="s320" title="S320" x="250.2" y="403.5" fill="#BFBFBF" stroke="#1D1D1B" stroke-width="1.4844" stroke-miterlimit="10" width="9.1" height="22.2"/>
<rect id="s319bis" title="S319 Bis" x="259.4" y="403.5" fill="#BFBFBF" stroke="#1D1D1B" stroke-width="1.4844" stroke-miterlimit="10" width="18.1" height="22.2"/>
<rect id="s319" title="S319" x="277.5" y="403.5" fill="#BFBFBF" stroke="#1D1D1B" stroke-width="1.4844" stroke-miterlimit="10" width="9" height="22.2"/>
<rect id="s318" title="S318" x="286.4" y="403.5" fill="#BFBFBF" stroke="#1D1D1B" stroke-width="1.4844" stroke-miterlimit="10" width="9.1" height="22.2"/>
<rect id="s317" title="S317" x="295.5" y="403.5" fill="#BFBFBF" stroke="#1D1D1B" stroke-width="1.4844" stroke-miterlimit="10" width="9.1" height="22.2"/>
<rect id="s316" title="S316" x="304.6" y="403.5" fill="#BFBFBF" stroke="#1D1D1B" stroke-width="1.4844" stroke-miterlimit="10" width="9" height="22.2"/>
<rect id="s315" title="S315" x="313.6" y="403.5" fill="#BFBFBF" stroke="#1D1D1B" stroke-width="1.4844" stroke-miterlimit="10" width="13.5" height="22.2"/>
<rect id="s314" title="S314" x="363.4" y="403.5" fill="#BFBFBF" stroke="#1D1D1B" stroke-width="1.4844" stroke-miterlimit="10" width="8.9" height="22.1"/>
<rect id="s313" title="S313" x="372.3" y="403.5" fill="#BFBFBF" stroke="#1D1D1B" stroke-width="1.4844" stroke-miterlimit="10" width="9" height="22.1"/>
<rect id="s312" title="S312" x="381.4" y="403.5" fill="#BFBFBF" stroke="#1D1D1B" stroke-width="1.4844" stroke-miterlimit="10" width="9.1" height="22.1"/>
<rect id="s311" title="S311" x="390.5" y="403.5" fill="#BFBFBF" stroke="#1D1D1B" stroke-width="1.4844" stroke-miterlimit="10" width="8.9" height="22.1"/>
<rect id="s310" title="S310" x="399.4" y="403.5" fill="#BFBFBF" stroke="#1D1D1B" stroke-width="1.4844" stroke-miterlimit="10" width="9" height="22.1"/>
<rect id="s309" title="S309" x="408.5" y="403.5" fill="#BFBFBF" stroke="#1D1D1B" stroke-width="1.4844" stroke-miterlimit="10" width="9.1" height="22.1"/>
<rect id="s308" title="S308" x="417.5" y="403.5" fill="#BFBFBF" stroke="#1D1D1B" stroke-width="1.4844" stroke-miterlimit="10" width="9.1" height="22.1"/>
<rect id="s307" title="S307" x="426.7" y="403.5" fill="#BFBFBF" stroke="#1D1D1B" stroke-width="1.4844" stroke-miterlimit="10" width="8.9" height="22.1"/>
<rect id="s306" title="S306" x="435.6" y="403.5" fill="#BFBFBF" stroke="#1D1D1B" stroke-width="1.4844" stroke-miterlimit="10" width="9" height="22.1"/>
<rect id="s305" title="S305" x="444.7" y="403.5" fill="#BFBFBF" stroke="#1D1D1B" stroke-width="1.4844" stroke-miterlimit="10" width="9.1" height="22.1"/>
<rect id="s304" title="S304" x="453.8" y="403.5" fill="#BFBFBF" stroke="#1D1D1B" stroke-width="1.4844" stroke-miterlimit="10" width="9" height="22.1"/>
<rect id="s303" title="S303" x="462.9" y="403.5" fill="#BFBFBF" stroke="#1D1D1B" stroke-width="1.4844" stroke-miterlimit="10" width="8.7" height="22.1"/>
<rect id="s302" title="S302" x="503.6" y="403.5" fill="#BFBFBF" stroke="#1D1D1B" stroke-width="1.4844" stroke-miterlimit="10" width="9" height="22.1"/>
<rect id="s301" title="S301" x="512.6" y="403.5" fill="#BFBFBF" stroke="#1D1D1B" stroke-width="1.4844" stroke-miterlimit="10" width="18.8" height="22.1"/>
</svg>
