<?xml version="1.0" encoding="utf-8"?>
<!-- Generator: Adobe Illustrator 18.0.0, SVG Export Plug-In . SVG Version: 6.00 Build 0)  -->
<!DOCTYPE svg PUBLIC "-//W3C//DTD SVG 1.1//EN" "http://www.w3.org/Graphics/SVG/1.1/DTD/svg11.dtd">
<svg version="1.1" id="Calque_2" xmlns="http://www.w3.org/2000/svg" xmlns:xlink="http://www.w3.org/1999/xlink" x="0px" y="0px"
	 viewBox="0 0 595.3 841.9" enable-background="new 0 0 595.3 841.9" xml:space="preserve">
<polygon id="contour" fill="#D0CECF" stroke="#F6F5F6" stroke-miterlimit="10" points="535.9,397.9 510.2,397.9 510.1,123.4 
	457.7,145.6 457.5,362 387.4,367.4 387.4,174.5 335.9,198.3 335.9,371.4 266.5,376.7 266.5,233.4 214.1,265.7 214.1,397.9 
	70.2,397.9 70.2,427.7 332.4,427.7 512.5,427.7 535.9,427.7 "/>
<polygon fill="#404040" stroke="#1D1D1B" stroke-width="1.4844" stroke-miterlimit="10" points="302.8,282.5 387.6,282.5 
	387.6,321.2 451.2,321.2 451.2,282.5 536.1,282.5 536.1,427.5 63.4,427.5 63.4,391.9 240.3,391.9 240.3,343.3 302.7,343.3 "/>
<rect id="amphie" title="Amphi E" x="302.8" y="282.5" fill="#BFBFBF" stroke="#1D1D1B" stroke-width="1.478" stroke-miterlimit="10" width="42.1" height="84.7"/>
<rect id="amphid" title="Amphi D" x="344.9" y="282.5" fill="#BFBFBF" stroke="#1D1D1B" stroke-width="1.478" stroke-miterlimit="10" width="42.7" height="79.7"/>
<rect id="amphic" title="Amphi C" x="387.6" y="321.2" fill="#BFBFBF" stroke="#1D1D1B" stroke-width="1.478" stroke-miterlimit="10" width="63.5" height="36.7"/>
<rect id="amphib" title="Amphi B" x="451.2" y="282.5" fill="#BFBFBF" stroke="#1D1D1B" stroke-width="1.478" stroke-miterlimit="10" width="43.5" height="72.5"/>
<rect id="amphia" title="Amphi A" x="494.6" y="282.5" fill="#BFBFBF" stroke="#1D1D1B" stroke-width="1.478" stroke-miterlimit="10" width="41.5" height="70.6"/>
<rect x="418.7" y="402.1" fill="#BFBFBF" stroke="#1D1D1B" stroke-width="1.478" stroke-miterlimit="10" width="30.4" height="25.6"/>
<rect x="308" y="401.5" fill="#BFBFBF" stroke="#1D1D1B" stroke-width="1.478" stroke-miterlimit="10" width="102.9" height="26.1"/>
<rect x="240.3" y="343.3" fill="#BFBFBF" stroke="#1D1D1B" stroke-width="1.478" stroke-miterlimit="10" width="62.4" height="48.7"/>
<rect x="113.5" y="401.4" fill="#BFBFBF" stroke="#1D1D1B" stroke-width="1.478" stroke-miterlimit="10" width="187.4" height="26.2"/>
<polygon fill="#404040" stroke="#1D1D1B" stroke-width="1.4844" stroke-miterlimit="10" points="331.2,453.9 331.2,464.4 
	324.8,464.4 324.8,528.8 331.2,528.8 331.2,726.1 382.3,726.1 382.3,671.4 462.1,671.4 462.1,696.3 514.8,696.3 514.8,680.2 
	539,680.2 539,477.6 518.5,477.6 518.5,464.4 471.3,464.4 471.3,577.1 372.3,577.1 372.3,453.9 "/>
<polygon fill="#BFBFBF" stroke="#1D1D1B" stroke-width="1.478" stroke-miterlimit="10" points="350.1,496.2 350.1,453.9 
	331.2,453.9 331.2,464.4 324.8,464.4 324.8,496.2 "/>
<rect x="324.8" y="496.2" fill="#BFBFBF" stroke="#1D1D1B" stroke-width="1.478" stroke-miterlimit="10" width="25.4" height="13.3"/>
<rect x="324.8" y="509.5" fill="#BFBFBF" stroke="#1D1D1B" stroke-width="1.478" stroke-miterlimit="10" width="25.4" height="8.9"/>
<polygon fill="#BFBFBF" stroke="#1D1D1B" stroke-width="1.478" stroke-miterlimit="10" points="350.1,528.4 350.1,518.3 
	324.8,518.3 324.8,528.8 "/>
<path fill="#BFBFBF" stroke="#1D1D1B" stroke-width="1.478" stroke-miterlimit="10" d="M350.1,551.3c0,0,2.8-23,0-23s-14.9,0-14.9,0
	v23H350.1z"/>
<polygon fill="#BFBFBF" stroke="#1D1D1B" stroke-width="1.478" stroke-miterlimit="10" points="350.1,578.3 350.1,551.3 
	335.2,551.3 335.2,528.4 331.2,528.4 331.2,578.3 "/>
<rect x="343.8" y="585.5" fill="#BFBFBF" stroke="#1D1D1B" stroke-width="1.478" stroke-miterlimit="10" width="7.4" height="10"/>
<rect x="331.2" y="585.5" fill="#BFBFBF" stroke="#1D1D1B" stroke-width="1.478" stroke-miterlimit="10" width="12.6" height="13.9"/>
<rect x="331.2" y="599.3" fill="#BFBFBF" stroke="#1D1D1B" stroke-width="1.478" stroke-miterlimit="10" width="12.6" height="9.1"/>
<rect x="343.8" y="612.7" fill="#BFBFBF" stroke="#1D1D1B" stroke-width="1.478" stroke-miterlimit="10" width="7.4" height="11.1"/>
<rect x="331.2" y="608.5" fill="#BFBFBF" stroke="#1D1D1B" stroke-width="1.478" stroke-miterlimit="10" width="12.6" height="9.8"/>
<rect x="331.2" y="618.2" fill="#BFBFBF" stroke="#1D1D1B" stroke-width="1.478" stroke-miterlimit="10" width="12.6" height="9"/>
<path fill="#BFBFBF" stroke="#1D1D1B" stroke-width="1.478" stroke-miterlimit="10" d="M331.2,636.9c7.7,0,12.6,0,12.6,0v-9.6h-12.6
	V636.9z"/>
<rect x="331.2" y="636.9" fill="#BFBFBF" stroke="#1D1D1B" stroke-width="1.478" stroke-miterlimit="10" width="20" height="23.7"/>
<rect x="331.2" y="660.5" fill="#BFBFBF" stroke="#1D1D1B" stroke-width="1.478" stroke-miterlimit="10" width="20" height="8.8"/>
<rect x="331.2" y="669.3" fill="#BFBFBF" stroke="#1D1D1B" stroke-width="1.478" stroke-miterlimit="10" width="20" height="10.3"/>
<rect x="331.2" y="679.6" fill="#BFBFBF" stroke="#1D1D1B" stroke-width="1.478" stroke-miterlimit="10" width="13.4" height="10"/>
<polygon fill="#BFBFBF" stroke="#1D1D1B" stroke-width="1.478" stroke-miterlimit="10" points="351.2,699.4 351.2,679.6 
	344.6,679.6 344.6,689.6 331.2,689.6 331.2,699.4 "/>
<rect x="350" y="699.4" fill="#BFBFBF" stroke="#1D1D1B" stroke-width="1.478" stroke-miterlimit="10" width="8.3" height="17.2"/>
<rect x="351.2" y="686.2" fill="#BFBFBF" stroke="#1D1D1B" stroke-width="1.478" stroke-miterlimit="10" width="7.1" height="13.2"/>
<rect x="342.1" y="699.4" fill="#BFBFBF" stroke="#1D1D1B" stroke-width="1.478" stroke-miterlimit="10" width="7.9" height="17.2"/>
<rect x="358.3" y="696.5" fill="#BFBFBF" stroke="#1D1D1B" stroke-width="1.478" stroke-miterlimit="10" width="24" height="29.6"/>
<polygon fill="#BFBFBF" stroke="#1D1D1B" stroke-width="1.478" stroke-miterlimit="10" points="382,660.5 358.3,660.5 358.3,696.5 
	382.3,696.5 "/>
<rect x="370.3" y="645.7" fill="#BFBFBF" stroke="#1D1D1B" stroke-width="1.478" stroke-miterlimit="10" width="11.6" height="14.9"/>
<rect x="358.3" y="645.7" fill="#BFBFBF" stroke="#1D1D1B" stroke-width="1.478" stroke-miterlimit="10" width="12" height="14.9"/>
<rect x="368.3" y="630.9" fill="#BFBFBF" stroke="#1D1D1B" stroke-width="1.478" stroke-miterlimit="10" width="13.7" height="8.3"/>
<rect x="358.3" y="630.9" fill="#BFBFBF" stroke="#1D1D1B" stroke-width="1.478" stroke-miterlimit="10" width="10" height="8.3"/>
<rect x="358.3" y="585.5" fill="#BFBFBF" stroke="#1D1D1B" stroke-width="1.478" stroke-miterlimit="10" width="23.7" height="45.5"/>
<polygon fill="#BFBFBF" stroke="#1D1D1B" stroke-width="1.478" stroke-miterlimit="10" points="382,617.3 461.5,617.3 461.5,671.4 
	382.3,671.4 "/>
<rect x="461.5" y="669.3" fill="#BFBFBF" stroke="#1D1D1B" stroke-width="1.478" stroke-miterlimit="10" width="14.5" height="27"/>
<rect x="476" y="669.3" fill="#BFBFBF" stroke="#1D1D1B" stroke-width="1.478" stroke-miterlimit="10" width="7.8" height="10.3"/>
<rect x="461.5" y="639.2" fill="#BFBFBF" stroke="#1D1D1B" stroke-width="1.478" stroke-miterlimit="10" width="23.8" height="21.3"/>
<rect x="461.5" y="660.5" fill="#BFBFBF" stroke="#1D1D1B" stroke-width="1.478" stroke-miterlimit="10" width="24.3" height="8.8"/>
<rect x="473.6" y="603.6" fill="#BFBFBF" stroke="#1D1D1B" stroke-width="1.478" stroke-miterlimit="10" width="11.7" height="35.7"/>
<rect x="461.5" y="617.3" fill="#BFBFBF" stroke="#1D1D1B" stroke-width="1.478" stroke-miterlimit="10" width="12.2" height="22"/>
<rect x="461.5" y="585.5" fill="#BFBFBF" stroke="#1D1D1B" stroke-width="1.478" stroke-miterlimit="10" width="23.8" height="18.1"/>
<rect x="461.5" y="603.6" fill="#BFBFBF" stroke="#1D1D1B" stroke-width="1.478" stroke-miterlimit="10" width="12.2" height="13.7"/>
<polygon fill="#BFBFBF" stroke="#1D1D1B" stroke-width="1.478" stroke-miterlimit="10" points="471.1,585.5 482.1,585.5 
	482.1,576.8 479.5,576.8 479.5,559.8 471.3,559.8 "/>
<polygon fill="#BFBFBF" stroke="#1D1D1B" stroke-width="1.478" stroke-miterlimit="10" points="485.3,576.7 485.3,559.8 
	479.5,559.8 479.5,576.8 "/>
<rect x="471.3" y="527" fill="#BFBFBF" stroke="#1D1D1B" stroke-width="1.478" stroke-miterlimit="10" width="14" height="32.8"/>
<rect x="471.3" y="521.2" fill="#BFBFBF" stroke="#1D1D1B" stroke-width="1.478" stroke-miterlimit="10" width="14" height="5.7"/>
<rect x="471.3" y="464.4" fill="#BFBFBF" stroke="#1D1D1B" stroke-width="1.478" stroke-miterlimit="10" width="14" height="56.9"/>
<polyline fill="#BFBFBF" stroke="#1D1D1B" stroke-width="1.478" stroke-miterlimit="10" points="485.3,487.1 485.3,464.4 
	518.5,464.4 518.5,477.6 513.5,477.6 513.5,487.1 485.3,487.1 513.5,487.1 "/>
<rect x="513.5" y="477.6" fill="#BFBFBF" stroke="#1D1D1B" stroke-width="1.478" stroke-miterlimit="10" width="25.5" height="9.4"/>
<rect x="501.9" y="487.1" fill="#BFBFBF" stroke="#1D1D1B" stroke-width="1.478" stroke-miterlimit="10" width="37.1" height="51.7"/>
<rect x="501.9" y="547.8" fill="#BFBFBF" stroke="#1D1D1B" stroke-width="1.478" stroke-miterlimit="10" width="37.1" height="50.6"/>
<rect x="514.2" y="598.3" fill="#BFBFBF" stroke="#1D1D1B" stroke-width="1.478" stroke-miterlimit="10" width="24.8" height="10.1"/>
<rect x="501.9" y="598.3" fill="#BFBFBF" stroke="#1D1D1B" stroke-width="1.478" stroke-miterlimit="10" width="12.3" height="10.1"/>
<rect x="501.9" y="618.1" fill="#BFBFBF" stroke="#1D1D1B" stroke-width="1.478" stroke-miterlimit="10" width="37.1" height="51.2"/>
<polygon fill="#BFBFBF" stroke="#1D1D1B" stroke-width="1.478" stroke-miterlimit="10" points="501.9,696.3 501.9,669.3 539,669.3 
	539,680.2 514.8,680.2 514.8,696.3 "/>
</svg>
